<?xml version="1.0" encoding="UTF-8" standalone="no"?>
<!-- Created with Inkscape (http://www.inkscape.org/) -->

<svg
   xmlns:dc="http://purl.org/dc/elements/1.1/"
   xmlns:cc="http://creativecommons.org/ns#"
   xmlns:rdf="http://www.w3.org/1999/02/22-rdf-syntax-ns#"
   xmlns:svg="http://www.w3.org/2000/svg"
   xmlns="http://www.w3.org/2000/svg"
   xmlns:sodipodi="http://sodipodi.sourceforge.net/DTD/sodipodi-0.dtd"
   xmlns:inkscape="http://www.inkscape.org/namespaces/inkscape"
   width="210mm"
   height="297mm"
   viewBox="0 0 210 297"
   version="1.1"
   id="svg856"
   inkscape:version="0.92.3 (2405546, 2018-03-11)"
   sodipodi:docname="svg_sheet-museum.svg">
  <defs
     id="defs850">
    <marker
       inkscape:stockid="Arrow1Sstart"
       orient="auto"
       refY="0.0"
       refX="0.0"
       id="Arrow1Sstart"
       style="overflow:visible"
       inkscape:isstock="true">
      <path
         id="path943"
         d="M 0.0,0.0 L 5.0,-5.0 L -12.5,0.0 L 5.0,5.0 L 0.0,0.0 z "
         style="fill-rule:evenodd;stroke:#ff0000;stroke-width:1pt;stroke-opacity:1;fill:#ff0000;fill-opacity:1"
         transform="scale(0.2) translate(6,0)" />
    </marker>
    <style
       id="style834">.cls-1{fill:#616161;}.cls-2{fill:#f37726;}</style>
    <style
       id="style860">.cls-1{fill:#616161;}.cls-2{fill:#f37726;}</style>
  </defs>
  <sodipodi:namedview
     id="base"
     pagecolor="#ffffff"
     bordercolor="#666666"
     borderopacity="1.0"
     inkscape:pageopacity="0.0"
     inkscape:pageshadow="2"
     inkscape:zoom="1.4"
     inkscape:cx="467.07416"
     inkscape:cy="772.81375"
     inkscape:document-units="mm"
     inkscape:current-layer="layer1"
     showgrid="false"
     inkscape:window-width="1920"
     inkscape:window-height="1009"
     inkscape:window-x="-8"
     inkscape:window-y="-8"
     inkscape:window-maximized="1" />
  <metadata
     id="metadata853">
    <rdf:RDF>
      <cc:Work
         rdf:about="">
        <dc:format>image/svg+xml</dc:format>
        <dc:type
           rdf:resource="http://purl.org/dc/dcmitype/StillImage" />
        <dc:title />
      </cc:Work>
    </rdf:RDF>
  </metadata>
  <g
     inkscape:label="Calque 1"
     inkscape:groupmode="layer"
     id="layer1">
    <g
       id="g1334"
       inkscape:export-filename="C:\Users\vdegu\Bureau\JB\nb-museum\Appendix\Info\Docs\Tools-overview2.png"
       inkscape:export-xdpi="500"
       inkscape:export-ydpi="500">
      <g
         transform="matrix(0.91455025,0,0,1.8562071,3.2866516,20.712338)"
         id="g821">
        <path
           style="fill:none;stroke:#000000;stroke-width:0.16797084;stroke-linecap:butt;stroke-linejoin:miter;stroke-miterlimit:4;stroke-dasharray:none;stroke-opacity:1"
           d="m 6.8488641,36.566817 c 5.6017259,3.916379 38.7034169,1.83338 49.1296919,4.582625"
           id="path815"
           inkscape:connector-curvature="0" />
        <path
           inkscape:connector-curvature="0"
           id="path817"
           d="m 105.1644,36.566817 c -5.601748,3.916379 -38.703439,1.83338 -49.129716,4.582625"
           style="fill:none;stroke:#000000;stroke-width:0.16797084;stroke-linecap:butt;stroke-linejoin:miter;stroke-miterlimit:4;stroke-dasharray:none;stroke-opacity:1" />
      </g>
      <g
         id="g1441"
         transform="matrix(0.91455025,0,0,1.8562071,107.16579,20.712338)">
        <path
           inkscape:connector-curvature="0"
           id="path1437"
           d="m 6.8488641,36.566817 c 5.6017259,3.916379 38.7034169,1.83338 49.1296919,4.582625"
           style="fill:none;stroke:#000000;stroke-width:0.16797084;stroke-linecap:butt;stroke-linejoin:miter;stroke-miterlimit:4;stroke-dasharray:none;stroke-opacity:1" />
        <path
           style="fill:none;stroke:#000000;stroke-width:0.16797084;stroke-linecap:butt;stroke-linejoin:miter;stroke-miterlimit:4;stroke-dasharray:none;stroke-opacity:1"
           d="m 105.1644,36.566817 c -5.601748,3.916379 -38.703439,1.83338 -49.129716,4.582625"
           id="path1439"
           inkscape:connector-curvature="0" />
      </g>
      <g
         transform="matrix(0.14084995,0,0,0.14084995,143.00087,106.69276)"
         id="g858">
        <path
           style="fill:#616161"
           inkscape:connector-curvature="0"
           class="cls-1"
           d="m 27,63.43 v -3.69 l 4.78,-0.83 V 25.32 L 27,24.49 V 20.77 H 39.47 L 53.2,53.15 h 0.19 l 13.3,-32.38 h 12.86 v 3.72 l -4.79,0.83 v 33.59 l 4.79,0.83 v 3.69 H 64.22 v -3.69 l 5,-0.83 V 28.65 H 69.08 L 55.26,61.9 H 51.42 L 37.09,28.68 h -0.14 l 0.21,17.84 v 12.39 l 5.15,0.83 v 3.69 z M 91.35,76.22 A 13.26,13.26 0 0 1 89.6,76.07 c -0.72,-0.11 -1.28,-0.21 -1.67,-0.31 l 0.59,-4.54 a 12.21,12.21 0 0 0 1.36,0.1 c 0.59,0 1,0 1.22,0 a 3.69,3.69 0 0 0 3,-1.4 15.13,15.13 0 0 0 2.15,-3.83 L 97.63,62.75 86.41,35.91 83,35.44 v -3.72 h 13.3 v 3.72 l -3.83,0.6 6.17,15.84 1.5,4.14 h 0.18 l 7.32,-20 -4,-0.6 v -3.7 h 13 v 3.72 l -3.28,0.47 -12.48,32.38 a 19,19 0 0 1 -2.13,4.09 9.13,9.13 0 0 1 -3,2.81 8.6,8.6 0 0 1 -4.4,1.03 z M 135,64 a 24.79,24.79 0 0 1 -7.5,-1.14 24.21,24.21 0 0 1 -6.87,-3.52 v -9.07 h 4.48 l 1,6.7 a 17,17 0 0 0 4.13,1.83 17.26,17.26 0 0 0 4.81,0.64 12.24,12.24 0 0 0 5,-0.89 7.05,7.05 0 0 0 3.11,-2.47 6.84,6.84 0 0 0 0.16,-7.15 7.79,7.79 0 0 0 -3.1,-2.63 24.72,24.72 0 0 0 -5.87,-2 27.61,27.61 0 0 1 -7.42,-2.74 12.83,12.83 0 0 1 -4.61,-4.15 10.17,10.17 0 0 1 -1.57,-5.61 10.43,10.43 0 0 1 1.77,-6 12.13,12.13 0 0 1 4.94,-4.16 16.82,16.82 0 0 1 7.39,-1.53 21.34,21.34 0 0 1 7.92,1.36 19.44,19.44 0 0 1 5.67,3.3 v 8.51 h -4.48 l -1,-6.09 a 11.47,11.47 0 0 0 -3.29,-1.75 14.48,14.48 0 0 0 -4.86,-0.7 10.17,10.17 0 0 0 -4.33,0.86 7,7 0 0 0 -2.94,2.42 6.34,6.34 0 0 0 -1,3.65 5.57,5.57 0 0 0 0.95,3.24 7.85,7.85 0 0 0 3.09,2.42 31.77,31.77 0 0 0 5.77,1.94 Q 143,41 146.44,44.26 a 10.61,10.61 0 0 1 3.49,8.06 10.35,10.35 0 0 1 -1.86,6.09 12.28,12.28 0 0 1 -5.21,4.14 A 19.32,19.32 0 0 1 135,64 Z m 30.47,-0.61 v -3.65 l 4.79,-0.83 V 25.13 h -9.68 l -0.84,5.92 H 155.4 V 20.77 h 35.45 v 10.28 h -4.28 l -0.88,-5.92 H 176 v 33.78 l 4.78,0.83 v 3.69 z"
           id="path840" />
        <path
           style="fill:#f37726"
           inkscape:connector-curvature="0"
           class="cls-2"
           d="M 24,83 Q 15.75,80.67 12.25,75.6 A 21.21,21.21 0 0 1 8.8,63.3 V 54.63 Q 8.8,49.89 6.64,47.25 4.48,44.61 0,44.61 v -6.23 q 4.49,0 6.64,-2.6 2.15,-2.6 2.16,-7.39 v -8.7 A 21.14,21.14 0 0 1 12.28,7.39 Q 15.77,2.34 24,0 l 1.69,5 a 10.7,10.7 0 0 0 -6.63,5.32 20.45,20.45 0 0 0 -2,9.42 v 8.7 a 16.58,16.58 0 0 1 -1.79,7.84 12.45,12.45 0 0 1 -5.27,5.24 12.5,12.5 0 0 1 5.36,5.34 16.49,16.49 0 0 1 1.79,7.77 v 8.67 a 20.15,20.15 0 0 0 2,9.37 10.85,10.85 0 0 0 6.57,5.33 z"
           id="path842" />
        <path
           style="fill:#f37726"
           inkscape:connector-curvature="0"
           class="cls-2"
           d="m 192,82.46 -1.67,-4.93 a 10.72,10.72 0 0 0 6.45,-5.23 19.44,19.44 0 0 0 2,-9.22 v -8.55 a 15.61,15.61 0 0 1 1.88,-7.78 12.22,12.22 0 0 1 5.78,-5.14 11.72,11.72 0 0 1 -5.78,-5 15.83,15.83 0 0 1 -1.88,-7.87 v -8.61 a 19.74,19.74 0 0 0 -2,-9.27 10.52,10.52 0 0 0 -6.45,-5.23 L 192,0.75 Q 200,3 203.48,8 a 20.81,20.81 0 0 1 3.43,12.11 v 8.58 q 0,4.7 2.13,7.26 2.13,2.56 6.58,2.56 v 6.13 q -4.45,0 -6.58,2.61 -2.13,2.61 -2.13,7.26 v 8.55 a 20.8,20.8 0 0 1 -3.43,12.08 Q 200,80.16 192,82.46 Z"
           id="path844" />
        <path
           style="fill:#616161"
           inkscape:connector-curvature="0"
           class="cls-1"
           d="m 12.46,105.84 -4.19,-11 H 8.19 c 0.08,0.88 0.12,1.91 0.12,3.1 v 7.87 H 7 V 93.47 h 2.14 l 3.92,10.2 h 0.08 l 3.94,-10.2 h 2.16 v 12.37 H 17.8 v -8 c 0,-0.91 0,-1.91 0.11,-3 h -0.06 l -4.24,11 z m 15.66,0 -0.29,-1.31 h -0.06 a 3.92,3.92 0 0 1 -1.39,1.17 4.13,4.13 0 0 1 -1.72,0.32 3.1,3.1 0 0 1 -2.15,-0.71 2.62,2.62 0 0 1 -0.79,-2 c 0,-1.87 1.5,-2.86 4.49,-3 h 1.58 V 99.7 a 2.31,2.31 0 0 0 -0.47,-1.59 1.91,1.91 0 0 0 -1.5,-0.53 6.2,6.2 0 0 0 -2.63,0.7 l -0.42,-1.06 a 6.86,6.86 0 0 1 3.13,-0.8 3.57,3.57 0 0 1 2.47,0.74 3.07,3.07 0 0 1 0.79,2.36 v 6.32 z m -3.18,-1 a 2.87,2.87 0 0 0 2.07,-0.72 2.66,2.66 0 0 0 0.75,-2 v -0.84 l -1.41,0.06 a 5.25,5.25 0 0 0 -2.42,0.53 1.57,1.57 0 0 0 -0.74,1.43 1.47,1.47 0 0 0 0.46,1.17 2,2 0 0 0 1.29,0.39 z m 11.34,-8.45 a 6.08,6.08 0 0 1 1.11,0.09 l -0.18,1.31 a 4.66,4.66 0 0 0 -1,-0.14 2.52,2.52 0 0 0 -1.94,0.92 3.35,3.35 0 0 0 -0.79,2.28 v 5 h -1.43 v -9.27 h 1.16 l 0.17,1.7 h 0.06 a 4.1,4.1 0 0 1 1.23,-1.39 2.89,2.89 0 0 1 1.61,-0.48 z m 4.23,4.68 a 14.94,14.94 0 0 1 1.11,-1.34 l 3,-3.17 h 1.66 l -3.75,3.94 4,5.32 h -1.7 l -3.26,-4.37 -1.07,0.9 v 3.47 H 39.12 V 92.67 h 1.39 v 7 c 0,0.31 0,0.79 -0.06,1.43 z M 52.14,106 a 4.29,4.29 0 0 1 -3.25,-1.25 4.89,4.89 0 0 1 -1.19,-3.49 5.33,5.33 0 0 1 1.11,-3.55 3.68,3.68 0 0 1 3,-1.32 3.5,3.5 0 0 1 2.75,1.14 4.37,4.37 0 0 1 1,3 v 0.89 h -6.4 a 3.7,3.7 0 0 0 0.82,2.47 2.87,2.87 0 0 0 2.21,0.84 7.64,7.64 0 0 0 3,-0.62 v 1.25 a 7.61,7.61 0 0 1 -1.43,0.46 7.15,7.15 0 0 1 -1.62,0.18 z m -0.37,-8.44 a 2.32,2.32 0 0 0 -1.8,0.73 3.34,3.34 0 0 0 -0.77,2 h 4.85 a 3.05,3.05 0 0 0 -0.6,-2 2.07,2.07 0 0 0 -1.68,-0.71 z m 12.48,7 h -0.08 a 3.27,3.27 0 0 1 -2.9,1.43 3.48,3.48 0 0 1 -2.83,-1.24 5.46,5.46 0 0 1 -1,-3.55 5.55,5.55 0 0 1 1,-3.56 3.44,3.44 0 0 1 2.83,-1.26 3.36,3.36 0 0 1 2.89,1.36 h 0.11 v -0.66 -0.66 -3.75 h 1.41 v 13.17 h -1.24 z m -2.81,0.25 a 2.54,2.54 0 0 0 2.09,-0.78 4,4 0 0 0 0.64,-2.53 v -0.3 a 4.63,4.63 0 0 0 -0.65,-2.81 2.51,2.51 0 0 0 -2.1,-0.84 2.14,2.14 0 0 0 -1.89,1 4.76,4.76 0 0 0 -0.65,2.7 4.64,4.64 0 0 0 0.65,2.69 2.23,2.23 0 0 0 1.91,0.9 z m 8.52,1 h -1.4 V 92.67 H 70 Z m 1.51,-9.26 H 73 l 2,5.28 a 18.81,18.81 0 0 1 0.83,2.61 h 0.08 q 0.11,-0.42 0.45,-1.47 0.34,-1.05 2.3,-6.42 h 1.52 l -4,10.54 a 5.11,5.11 0 0 1 -1.39,2.22 2.91,2.91 0 0 1 -1.94,0.66 5.93,5.93 0 0 1 -1.26,-0.14 v -1.13 a 4,4 0 0 0 1,0.11 2.13,2.13 0 0 0 2.06,-1.62 l 0.52,-1.33 z m 21.91,6 A 3.07,3.07 0 0 1 92.19,105.11 5.2,5.2 0 0 1 89,106 8,8 0 0 1 85.61,105.43 v -1.39 a 9,9 0 0 0 1.66,0.5 8.35,8.35 0 0 0 1.78,0.19 3.46,3.46 0 0 0 2.15,-0.55 1.78,1.78 0 0 0 0.74,-1.51 1.86,1.86 0 0 0 -0.27,-1 2.19,2.19 0 0 0 -0.86,-0.77 13.3,13.3 0 0 0 -1.82,-0.78 5.73,5.73 0 0 1 -2.47,-1.47 3.22,3.22 0 0 1 -0.74,-2.2 2.75,2.75 0 0 1 1.07,-2.28 4.46,4.46 0 0 1 2.84,-0.84 8.54,8.54 0 0 1 3.41,0.67 l -0.46,1.25 a 7.62,7.62 0 0 0 -3,-0.64 2.77,2.77 0 0 0 -1.78,0.5 1.59,1.59 0 0 0 -0.64,1.36 2.13,2.13 0 0 0 0.23,1.06 2.25,2.25 0 0 0 0.8,0.75 10.53,10.53 0 0 0 1.75,0.72 6.8,6.8 0 0 1 2.68,1.48 3,3 0 0 1 0.7,2.07 z m 5.3,2.31 a 5.55,5.55 0 0 0 0.72,0 5.43,5.43 0 0 0 0.55,-0.12 v 1.08 a 2.37,2.37 0 0 1 -0.67,0.17 4.81,4.81 0 0 1 -0.8,0.08 c -1.79,0 -2.69,-1 -2.69,-2.85 V 97.66 H 94.47 V 97 l 1.32,-0.57 0.6,-2 h 0.81 v 2.16 h 2.69 v 1.08 H 97.2 v 5.46 a 1.93,1.93 0 0 0 0.39,1.29 1.4,1.4 0 0 0 1.09,0.44 z M 106,96.41 a 6.23,6.23 0 0 1 1.11,0.09 L 107,97.81 a 4.66,4.66 0 0 0 -1,-0.14 2.5,2.5 0 0 0 -1.93,0.92 3.31,3.31 0 0 0 -0.8,2.28 v 5 h -1.47 v -9.29 h 1.2 l 0.17,1.7 h 0.06 a 4.12,4.12 0 0 1 1.24,-1.39 2.87,2.87 0 0 1 1.53,-0.48 z m 4.16,0.17 v 6 a 2.44,2.44 0 0 0 0.52,1.69 2.06,2.06 0 0 0 1.61,0.56 2.61,2.61 0 0 0 2.12,-0.79 4,4 0 0 0 0.68,-2.61 v -4.85 h 1.4 v 9.26 h -1.15 l -0.21,-1.25 h -0.08 a 2.79,2.79 0 0 1 -1.18,1.07 4.09,4.09 0 0 1 -1.75,0.36 3.55,3.55 0 0 1 -2.53,-0.8 3.41,3.41 0 0 1 -0.85,-2.58 v -6.06 z m 13,9.44 a 4,4 0 0 1 -3.11,-1.24 5.09,5.09 0 0 1 -1.1,-3.51 5.25,5.25 0 0 1 1.12,-3.6 4,4 0 0 1 3.19,-1.26 6.1,6.1 0 0 1 1.34,0.14 4,4 0 0 1 1,0.34 l -0.42,1.19 a 6.2,6.2 0 0 0 -1,-0.31 4.12,4.12 0 0 0 -1,-0.13 q -2.84,0 -2.83,3.61 a 4.28,4.28 0 0 0 0.69,2.62 2.4,2.4 0 0 0 2,0.91 6.24,6.24 0 0 0 2.38,-0.5 v 1.25 a 5.09,5.09 0 0 1 -2.21,0.47 z m 7.55,-1.16 a 5.55,5.55 0 0 0 0.72,0 5.43,5.43 0 0 0 0.55,-0.12 v 1.08 a 2.36,2.36 0 0 1 -0.68,0.17 4.7,4.7 0 0 1 -0.79,0.08 c -1.79,0 -2.69,-1 -2.69,-2.85 v -5.56 h -1.33 V 97 l 1.33,-0.57 0.59,-2 h 0.82 v 2.16 H 132 v 1.08 h -2.68 v 5.46 a 1.93,1.93 0 0 0 0.39,1.29 1.39,1.39 0 0 0 1.05,0.44 z m 4.45,-8.28 v 6 a 2.44,2.44 0 0 0 0.51,1.69 2.07,2.07 0 0 0 1.61,0.56 2.64,2.64 0 0 0 2.13,-0.79 4.09,4.09 0 0 0 0.67,-2.61 v -4.85 h 1.4 v 9.26 h -1.15 l -0.21,-1.25 h -0.07 a 2.81,2.81 0 0 1 -1.19,1.07 4.05,4.05 0 0 1 -1.75,0.36 3.55,3.55 0 0 1 -2.53,-0.8 3.45,3.45 0 0 1 -0.85,-2.58 v -6.06 z m 13.54,-0.17 a 6.23,6.23 0 0 1 1.11,0.09 l -0.19,1.31 a 4.58,4.58 0 0 0 -1,-0.14 2.5,2.5 0 0 0 -1.93,0.92 3.31,3.31 0 0 0 -0.8,2.28 v 5 h -1.41 v -9.29 h 1.16 l 0.17,1.7 h 0.06 a 4.12,4.12 0 0 1 1.24,-1.39 2.87,2.87 0 0 1 1.64,-0.48 z m 6.76,9.61 a 4.27,4.27 0 0 1 -3.25,-1.25 4.89,4.89 0 0 1 -1.19,-3.49 5.33,5.33 0 0 1 1.11,-3.55 3.68,3.68 0 0 1 3,-1.32 3.5,3.5 0 0 1 2.75,1.14 4.37,4.37 0 0 1 1,3 v 0.89 h -6.39 a 3.75,3.75 0 0 0 0.83,2.47 2.87,2.87 0 0 0 2.21,0.84 7.59,7.59 0 0 0 3,-0.62 v 1.25 a 7.53,7.53 0 0 1 -1.42,0.46 7.28,7.28 0 0 1 -1.6,0.16 z m -0.38,-8.44 a 2.29,2.29 0 0 0 -1.79,0.73 3.27,3.27 0 0 0 -0.77,2 h 4.84 a 3.05,3.05 0 0 0 -0.59,-2 2.08,2.08 0 0 0 -1.64,-0.73 z m 12.49,7 h -0.08 a 3.27,3.27 0 0 1 -2.9,1.43 3.48,3.48 0 0 1 -2.83,-1.24 5.46,5.46 0 0 1 -1,-3.55 5.55,5.55 0 0 1 1,-3.56 3.44,3.44 0 0 1 2.83,-1.26 3.36,3.36 0 0 1 2.89,1.36 h 0.11 V 97.1 l -0.05,-0.66 V 92.67 H 169 v 13.17 h -1.14 z m -2.81,0.25 a 2.55,2.55 0 0 0 2.09,-0.78 4,4 0 0 0 0.64,-2.53 v -0.3 a 4.7,4.7 0 0 0 -0.65,-2.81 2.51,2.51 0 0 0 -2.1,-0.84 2.14,2.14 0 0 0 -1.89,1 4.69,4.69 0 0 0 -0.65,2.7 4.57,4.57 0 0 0 0.65,2.69 2.21,2.21 0 0 0 1.96,0.88 z m 15.65,1 H 179 V 94.75 h -3.9 v -1.28 h 9.27 v 1.28 h -3.91 z m 9.48,0.18 a 4.27,4.27 0 0 1 -3.25,-1.25 4.85,4.85 0 0 1 -1.19,-3.49 5.33,5.33 0 0 1 1.11,-3.55 3.68,3.68 0 0 1 3,-1.32 3.51,3.51 0 0 1 2.75,1.14 4.42,4.42 0 0 1 1,3 v 0.89 H 187 a 3.7,3.7 0 0 0 0.83,2.47 2.86,2.86 0 0 0 2.2,0.84 7.64,7.64 0 0 0 3,-0.62 v 1.25 a 7.53,7.53 0 0 1 -1.42,0.46 7.28,7.28 0 0 1 -1.67,0.17 z m -0.38,-8.44 a 2.32,2.32 0 0 0 -1.8,0.73 3.33,3.33 0 0 0 -0.76,2 h 4.84 a 3.11,3.11 0 0 0 -0.59,-2 2.09,2.09 0 0 0 -1.64,-0.72 z m 8.41,3.51 -3.22,-4.51 h 1.6 l 2.45,3.54 2.44,-3.54 h 1.57 l -3.21,4.51 3.39,4.75 h -1.6 l -2.59,-3.75 -2.63,3.75 h -1.59 z m 9.84,3.77 a 5.55,5.55 0 0 0 0.72,0 5.43,5.43 0 0 0 0.55,-0.12 v 1.08 a 2.37,2.37 0 0 1 -0.67,0.17 4.81,4.81 0 0 1 -0.8,0.08 c -1.79,0 -2.69,-1 -2.69,-2.85 V 97.66 H 203.6 V 97 l 1.32,-0.57 0.6,-2 h 0.81 v 2.16 H 209 v 1.08 h -2.69 v 5.46 a 1.93,1.93 0 0 0 0.39,1.29 1.4,1.4 0 0 0 1.11,0.44 z"
           id="path846" />
      </g>
      <g
         transform="matrix(0.12016602,0,0,0.12016602,28.274134,108.52538)"
         id="g884">
        <path
           style="fill:#616161"
           inkscape:connector-curvature="0"
           class="cls-1"
           d="m 281.94,79.3 a 14.43,14.43 0 0 1 -6.71,-1.47 12.62,12.62 0 0 1 -4.73,-4.36 l -0.66,5.07 h -6.2 V 27.32 l -5.94,-1 v -4.64 h 13.13 v 22.08 a 12.27,12.27 0 0 1 4.61,-4 14,14 0 0 1 6.42,-1.39 13.29,13.29 0 0 1 8.33,2.63 16.56,16.56 0 0 1 5.29,7.42 30.78,30.78 0 0 1 1.85,11.12 v 0.75 a 25,25 0 0 1 -1.85,10 15.19,15.19 0 0 1 -5.29,6.65 14.08,14.08 0 0 1 -8.25,2.36 z m -1.83,-5.83 q 5.07,0 7.53,-3.6 2.46,-3.6 2.47,-9.57 v -0.75 a 26.4,26.4 0 0 0 -1.1,-8 11.71,11.71 0 0 0 -3.32,-5.4 8.2,8.2 0 0 0 -5.65,-2 9.48,9.48 0 0 0 -5.59,1.61 11.39,11.39 0 0 0 -3.62,4.3 v 17.46 a 11.22,11.22 0 0 0 3.65,4.35 9.63,9.63 0 0 0 5.63,1.6 z M 322,79.3 a 16.31,16.31 0 0 1 -15.53,-9.67 24,24 0 0 1 -2.14,-10.37 v -0.8 a 24,24 0 0 1 2.14,-10.38 17,17 0 0 1 6.1,-7.08 17,17 0 0 1 24.87,7.11 23.79,23.79 0 0 1 2.16,10.39 v 0.8 A 24,24 0 0 1 337.44,69.7 16.15,16.15 0 0 1 322,79.3 Z m 0,-5.61 a 8.83,8.83 0 0 0 5.75,-1.87 11.64,11.64 0 0 0 3.5,-5.14 21.67,21.67 0 0 0 1.19,-7.42 v -0.8 a 21.63,21.63 0 0 0 -1.2,-7.46 11.36,11.36 0 0 0 -3.53,-5.14 9.81,9.81 0 0 0 -11.55,0 11.31,11.31 0 0 0 -3.5,5.14 22.15,22.15 0 0 0 -1.15,7.42 v 0.8 a 22.19,22.19 0 0 0 1.15,7.42 11.43,11.43 0 0 0 3.52,5.14 9,9 0 0 0 5.82,1.91 z m 42.25,5.61 a 16.31,16.31 0 0 1 -15.53,-9.67 24,24 0 0 1 -2.14,-10.37 v -0.8 a 24,24 0 0 1 2.14,-10.38 17,17 0 0 1 6.1,-7.08 17,17 0 0 1 24.87,7.11 23.79,23.79 0 0 1 2.16,10.39 v 0.8 a 24,24 0 0 1 -2.16,10.4 16.15,16.15 0 0 1 -15.45,9.64 z m 0,-5.61 a 8.83,8.83 0 0 0 5.75,-1.87 11.64,11.64 0 0 0 3.5,-5.14 21.67,21.67 0 0 0 1.19,-7.42 v -0.8 A 21.63,21.63 0 0 0 373.49,51 11.36,11.36 0 0 0 370,45.9 a 9.81,9.81 0 0 0 -11.55,0 11.31,11.31 0 0 0 -3.5,5.14 22.15,22.15 0 0 0 -1.15,7.42 v 0.8 a 22.19,22.19 0 0 0 1.15,7.42 11.43,11.43 0 0 0 3.52,5.14 9,9 0 0 0 5.77,1.87 z m 22.06,4.85 v -4.6 l 5.95,-1 V 27.32 l -5.95,-1 v -4.64 h 13.12 v 51.25 l 5.94,1 v 4.6 z m 25.34,0 v -4.6 l 4,-0.47 -0.11,-0.15 -11.41,-14.72 3.71,-5.72 15.94,20.19 5.69,0.87 v 4.6 z m -12.73,-11.41 -2.67,-5.66 17.14,-17.06 0.17,-0.22 -4.22,-0.47 V 39.1 h 17 v 4.62 l -5.06,1 z"
           id="path866" />
        <path
           style="fill:#f37726"
           inkscape:connector-curvature="0"
           class="cls-2"
           d="m 255.8,104.69 q -10.41,-2.94 -14.82,-9.35 a 26.7,26.7 0 0 1 -4.4,-15.48 V 68.92 q 0,-6 -2.74,-9.31 -2.74,-3.31 -8.37,-3.34 v -7.85 q 5.66,0 8.37,-3.28 2.71,-3.28 2.74,-9.33 v -11 A 26.67,26.67 0 0 1 241,9.31 Q 245.39,2.93 255.8,0 l 2.12,6.25 a 13.4,13.4 0 0 0 -8.34,6.7 25.71,25.71 0 0 0 -2.49,11.88 v 11 a 20.94,20.94 0 0 1 -2.25,9.89 15.59,15.59 0 0 1 -6.76,6.66 16,16 0 0 1 6.76,6.77 20.78,20.78 0 0 1 2.25,9.79 v 10.92 a 25.3,25.3 0 0 0 2.49,11.81 13.71,13.71 0 0 0 8.34,6.71 z"
           id="path868" />
        <path
           style="fill:#f37726"
           inkscape:connector-curvature="0"
           class="cls-2"
           d="m 430.26,104.67 -2.14,-6.31 a 13.72,13.72 0 0 0 8.26,-6.7 25.07,25.07 0 0 0 2.52,-11.81 V 68.91 a 20.07,20.07 0 0 1 2.4,-10 15.7,15.7 0 0 1 7.43,-6.57 15.15,15.15 0 0 1 -7.43,-6.46 20.25,20.25 0 0 1 -2.4,-10.09 v -11 a 25.44,25.44 0 0 0 -2.52,-11.87 13.45,13.45 0 0 0 -8.26,-6.7 L 430.26,0 Q 440.61,2.92 445,9.3 a 26.66,26.66 0 0 1 4.4,15.51 v 11 q 0,6 2.72,9.33 c 1.83,2.18 4.64,3.28 8.44,3.28 v 7.84 q -5.7,0 -8.44,3.35 -2.74,3.35 -2.72,9.31 V 79.85 A 26.7,26.7 0 0 1 445,95.33 q -4.38,6.4 -14.74,9.34 z"
           id="path870" />
        <path
           style="fill:#616161"
           inkscape:connector-curvature="0"
           class="cls-1"
           d="m 11.28,40.9 v 41.67 c 0,3.36 -0.65,5.9 -2,7.61 -1.35,1.71 -3.28,2.56 -6.09,2.56 -0.52,0 -1,0 -1.56,0 L 0,92.6 v -3.8 h 0.94 0.92 c 2,0 3.29,-0.4 3.89,-1.31 a 7,7 0 0 0 0.91,-3.9 V 40.9 Z m 13.43,0 V 65.57 A 11.82,11.82 0 0 0 27,73.13 c 1.43,1.87 4,2.81 7.77,2.81 A 9.73,9.73 0 0 0 43.15,71.69 17.84,17.84 0 0 0 46.2,61.05 V 40.9 h 4.6 v 37.84 h -4.25 v -6.8 h -0.14 a 13.73,13.73 0 0 1 -5.26,5.82 14.77,14.77 0 0 1 -7.81,2.09 q -6.81,0 -10,-3.61 -3.19,-3.61 -3.25,-10.47 V 40.9 Z m 52.75,-1.08 q 7.94,0 12.46,5.56 4.52,5.56 4.54,14.45 0,8.85 -4.55,14.44 -4.55,5.59 -12.42,5.58 a 15.38,15.38 0 0 1 -8.16,-2.22 11.57,11.57 0 0 1 -5,-6.09 h -0.15 v 21.2 H 59.55 V 40.9 h 4.26 v 7.18 H 64 A 12.58,12.58 0 0 1 69.24,42 15.8,15.8 0 0 1 77.46,39.82 Z m -13.3,20 q 0,7.19 3.45,11.67 3.45,4.48 9.85,4.47 a 10.53,10.53 0 0 0 9.07,-4.59 19.27,19.27 0 0 0 3.3,-11.52 19.26,19.26 0 0 0 -3.3,-11.53 10.63,10.63 0 0 0 -9.18,-4.61 q -6.41,0 -9.8,4.05 -3.39,4.05 -3.39,12.04 z M 102.3,40.9 114.76,73.11 126.44,40.9 h 4.61 l -16.29,43.25 a 19.6,19.6 0 0 1 -3.57,6.5 c -1.3,1.39 -3.42,2.09 -6.38,2.09 l -1.64,-0.08 a 6.87,6.87 0 0 1 -2,-0.28 v -3.91 h 0.06 a 5.64,5.64 0 0 0 1.28,0.25 12.83,12.83 0 0 0 1.8,0.14 5.4,5.4 0 0 0 4.36,-1.75 c 1,-1.16 2.27,-4 3.84,-8.51 L 97.39,40.9 Z M 142.94,29.54 V 40.9 h 7.69 v 3.9 h -7.69 v 25.81 c 0,1.93 0.36,3.2 1.08,3.8 a 4.28,4.28 0 0 0 2.81,0.89 c 0.48,0 1,0 1.71,0 0.71,0 1.35,-0.1 2.09,-0.18 V 79 c -0.67,0 -1.34,0.09 -2,0.11 -0.66,0.02 -1.36,0 -2.06,0 q -4.62,0 -6.44,-1.75 c -1.19,-1.17 -1.79,-3.26 -1.79,-6.3 V 44.8 h -6.63 v -3.9 h 6.63 V 29.54 Z m 28.49,10.28 a 14.74,14.74 0 0 1 12.17,5.59 q 4.49,5.58 4.49,14.89 v 0.75 H 159 a 16.8,16.8 0 0 0 3.53,10.75 11,11 0 0 0 8.92,4.14 11.79,11.79 0 0 0 7.55,-2.37 13.62,13.62 0 0 0 4.3,-7.28 h 4.7 q -1.62,6.83 -5.66,10.2 -4.04,3.37 -10.86,3.36 -8,0 -12.55,-5.36 -4.55,-5.36 -4.53,-14.66 0,-8.8 4.55,-14.4 4.55,-5.6 12.48,-5.61 z m 12,17.37 A 15,15 0 0 0 179.9,47.63 11.22,11.22 0 0 0 163.07,47.35 17.33,17.33 0 0 0 159,57.19 Z M 211.83,40.4 H 213 V 45 h -0.54 a 12.91,12.91 0 0 0 -9.84,3.92 13.65,13.65 0 0 0 -3.7,9.76 v 20 h -4.61 V 40.9 h 4.26 v 8.87 h 0.14 a 14.74,14.74 0 0 1 5.21,-6.91 13.46,13.46 0 0 1 7.94,-2.46 z"
           id="path872" />
      </g>
      <path
         inkscape:connector-curvature="0"
         id="path929"
         d="m 165.47839,78.100568 a 10.432884,6.4478772 0 0 1 0.0232,0.429254 v 0 a 10.432884,6.4478772 0 0 1 -10.43289,6.447878 10.432884,6.4478772 0 0 1 -10.43288,-6.447878 10.432884,6.4478772 0 0 1 0.0232,-0.429527"
         style="opacity:1;fill:none;fill-opacity:1;stroke:#ff0000;stroke-width:0.60000002;stroke-miterlimit:4;stroke-dasharray:none;stroke-dashoffset:0;stroke-opacity:1;marker-start:url(#Arrow1Sstart)" />
    </g>
  </g>
</svg>
